<svg width="112" height="112" viewBox="0 0 112 112" fill="none" xmlns="http://www.w3.org/2000/svg">
  <rect width="112" height="112" rx="16" fill="#DFE3E8" />
  <path
    d="M69.0867 50.629L63.5526 48.3109C62.538 47.886 61.3602 48.3684 60.9352 49.383C60.5102 50.3976 60.9926 51.5754 62.0072 52.0004L67.5414 54.3184C70.5852 55.5933 72.0324 59.1268 70.7575 62.1706C69.4826 65.2144 65.9491 66.6616 62.9053 65.3867L57.3712 63.0687C56.3566 62.6437 55.1788 63.1261 54.7538 64.1407C54.3288 65.1553 54.8112 66.3331 55.8258 66.7581L61.36 69.0761C66.4514 71.2087 72.3143 68.8073 74.4469 63.7159C76.5795 58.6245 74.1781 52.7616 69.0867 50.629ZM48.6209 52.8985C48.1959 53.913 48.6784 55.0909 49.693 55.5158L60.7612 60.1519C61.7758 60.5769 62.9537 60.0945 63.3786 59.0799C63.8036 58.0653 63.3212 56.8875 62.3066 56.4625L51.2383 51.8264C50.2237 51.4014 49.0459 51.8839 48.6209 52.8985ZM49.9923 59.9779L44.4582 57.6599C41.4144 56.385 39.9671 52.8515 41.2421 49.8077C42.517 46.764 46.0505 45.3167 49.0942 46.5916L54.6284 48.9097C55.643 49.3346 56.8208 48.8522 57.2458 47.8376C57.6707 46.823 57.1883 45.6452 56.1737 45.2202L50.6396 42.9022C45.5482 40.7696 39.6852 43.171 37.5526 48.2624C35.42 53.3538 37.8214 59.2168 42.9128 61.3493L48.447 63.6674C49.4616 64.0923 50.6394 63.6099 51.0644 62.5953C51.4893 61.5807 51.0069 60.4029 49.9923 59.9779Z"
    fill="#919EAB" />
</svg>